<?xml version="1.0" encoding="utf-8"?>
<!-- Generator: Adobe Illustrator 18.1.0, SVG Export Plug-In . SVG Version: 6.00 Build 0)  -->
<svg version="1.1" id="Layer_1" xmlns="http://www.w3.org/2000/svg" xmlns:xlink="http://www.w3.org/1999/xlink" x="0px" y="0px"
	 viewBox="0 0 150 150" enable-background="new 0 0 150 150" xml:space="preserve">
<g>
	<g>
		<g>
			<path fill="#F9A11B" d="M77.6,94.7V24h4.5v67.3h60.3v3.4H77.6z"/>
		</g>
	</g>
	<g>
		<g>
			<path fill="#888888" d="M78.6,139.3c-35.7,0-64.7-29-64.7-64.7c0-35.7,29-64.7,64.7-64.7c0.9,0,1.8,0,2.8,0.1V6.6
				c-0.9,0-1.8-0.1-2.8-0.1c-37.5,0-68,30.5-68,68c0,37.5,30.5,68,68,68c25.4,0,47.6-14,59.3-34.7H134
				C122.7,126.8,102.1,139.3,78.6,139.3z"/>
		</g>
	</g>
</g>
</svg>
